<svg width="476" height="223" viewBox="0 0 476 223" fill="none" xmlns="http://www.w3.org/2000/svg">
<path fill-rule="evenodd" clip-rule="evenodd" d="M378.644 0C394.047 0 408.239 2.09038 421.222 6.27114C434.204 10.2319 444.656 17.2731 452.577 27.395C460.499 37.5168 464.46 51.4893 464.46 69.3126C464.46 86.4757 460.499 100.448 452.577 111.23C446.45 119.571 438.808 126.199 429.652 131.116L475.925 213.795C476.112 214.128 475.871 214.539 475.489 214.539H466.855C466.697 214.539 466.549 214.465 466.455 214.339L460.566 206.487C460.472 206.362 460.324 206.287 460.166 206.287H453.165C452.753 206.287 452.518 206.758 452.765 207.087L457.753 213.739C458.001 214.069 457.765 214.539 457.353 214.539H413.276C413.088 214.539 412.916 214.434 412.831 214.267L376.176 142.858C376.09 142.691 375.918 142.586 375.731 142.586H354.719C354.443 142.586 354.219 142.81 354.219 143.086V214.039C354.219 214.315 353.996 214.539 353.719 214.539H339.207C339.008 214.539 338.836 214.279 338.755 214.134C338.721 214.072 338.707 214.003 338.707 213.932V189.784H330.955C330.679 189.784 330.455 190.008 330.455 190.284V214.039C330.455 214.315 330.231 214.539 329.955 214.539H284.885C284.696 214.539 284.523 214.432 284.438 214.264L208.746 63.9491V102.644C208.746 102.92 208.522 103.144 208.246 103.144H167.703C167.566 103.144 167.435 103.087 167.34 102.988L130.356 63.9491C123.095 58.8882 116.796 55.4501 109.975 52.8096C103.374 50.1691 96.1127 48.8489 88.1912 48.8489C81.37 48.8489 75.869 50.0591 71.6882 52.4795C67.7275 54.9 65.7471 58.5306 65.7471 63.3715C65.7471 66.6721 66.9574 69.5326 69.3778 71.9531C72.0183 74.1535 75.759 76.2439 80.5998 78.2242C85.4407 79.9845 91.0517 82.1849 97.4329 84.8254L123.508 95.0573C132.529 98.5779 140.121 103.089 146.282 108.59C152.443 113.871 157.174 120.252 160.474 127.733C163.775 135.215 165.425 143.906 165.425 153.808C165.425 165.91 162.125 177.242 155.523 187.804C149.142 198.146 139.681 206.507 127.138 212.889C114.596 219.27 99.4133 222.46 81.59 222.46C68.1676 222.46 54.195 219.93 39.6724 214.869C25.3003 209.861 12.329 202.266 0.758399 192.086C0.555815 191.907 0.53215 191.6 0.704549 191.392L32.4275 153.195C32.6017 152.986 32.9117 152.954 33.1253 153.124C40.7167 159.147 48.8402 164.106 57.4957 168.001C66.5173 171.741 74.9888 173.612 82.9103 173.612C91.4918 173.612 97.6529 172.291 101.394 169.651C105.354 167.01 107.335 163.27 107.335 158.429C107.335 154.908 106.124 152.158 103.704 150.177C101.504 147.977 98.203 145.997 93.8022 144.236C89.6215 142.256 84.4505 140.055 78.2894 137.635L51.5546 126.413C43.8532 123.332 36.7019 119.152 30.1007 113.871C23.4995 108.37 18.2185 101.768 14.2578 94.0671C10.2971 86.1457 8.31672 77.014 8.31672 66.6721C8.31672 54.3499 11.7273 43.2379 18.5486 33.3361C25.3698 23.2142 34.7215 15.1828 46.6037 9.2417C58.7059 3.08057 72.5684 6.24667e-06 88.1912 6.24667e-06C100.513 6.24667e-06 112.946 2.42045 125.488 7.26133C138.25 11.8822 149.335 19.1985 159.237 28.8802H165.425V0.5C165.425 0.223858 165.649 0 165.925 0H223.222C223.403 0 223.57 0.0982632 223.659 0.256763L280.803 102.887C280.891 103.045 281.059 103.144 281.24 103.144H284.082C284.356 103.144 284.579 102.923 284.582 102.649L285.562 0.495203C285.565 0.220946 285.788 0 286.062 0H378.644ZM374.683 97.6977H354.219V44.8882H374.683C385.905 44.8882 394.377 46.6485 400.098 50.1691C406.039 53.6897 409.009 60.0709 409.009 69.3126C409.009 78.5542 406.039 85.5955 400.098 90.4364C394.377 95.2773 385.905 97.6977 374.683 97.6977Z" fill="#F962D8"/>
<path d="M208.746 107.769V123.272C208.746 123.548 208.522 123.772 208.246 123.772H167.988C167.712 123.772 167.488 123.548 167.488 123.272V107.769C167.488 107.493 167.712 107.269 167.988 107.269H208.246C208.522 107.269 208.746 107.493 208.746 107.769Z" fill="#F962D8"/>
<path d="M177.76 140.378C177.76 146.203 182.438 150.924 188.21 150.924C193.981 150.924 198.66 146.203 198.66 140.378C198.66 134.554 193.981 129.832 188.21 129.832C182.438 129.832 177.76 134.554 177.76 140.378Z" fill="#F962D8"/>
<path d="M242.55 187.624C236.779 187.624 232.1 182.902 232.1 177.078C232.1 176.187 232.415 174.497 232.415 174.497C232.357 174.51 232.298 174.521 232.239 174.53C229.854 174.896 227.317 171.937 228.268 169.766C231.248 162.967 240.012 166.138 241.226 166.616C241.659 166.561 242.101 166.532 242.55 166.532C248.321 166.532 253 171.254 253 177.078C253 182.902 248.321 187.624 242.55 187.624Z" fill="#F962D8"/>
<path d="M185.772 153.947C181.679 153.295 179.153 151.697 177.063 160.064C177.063 160.064 169.609 178.836 177.063 182.492C177.063 182.492 178.928 183.598 181.651 185.013C185.021 186.766 189.707 188.993 193.791 190.179C194.725 190.45 195.628 190.667 196.476 190.811C198.884 191.221 200.854 191.046 201.865 189.874C201.865 189.874 206.532 184.601 198.033 179.89C193.017 177.11 191.484 172.227 191.275 165.337C191.066 158.447 190.615 154.72 185.772 153.947Z" fill="#F962D8"/>
<path d="M183.124 202.599C176.993 202.599 176.715 214.832 183.124 214.832H201.864C203.862 214.692 207.856 213.286 207.856 208.786V192.826L213.987 194.373C213.721 198.773 215.199 205.219 221.023 206.121C222.831 206.4 226.102 205.865 228.826 204.849L233.633 213.145C235.583 216.449 246.869 213.567 243.525 206.396L233.075 185.585C233.075 185.585 212.593 182.421 205.766 180.453C201.865 179.328 198.033 179.89 198.033 179.89C206.532 184.601 201.865 189.874 201.865 189.874C200.854 191.046 198.884 191.221 196.476 190.811L195.664 192.826V202.599H191.289H183.124Z" fill="#F962D8"/>
<path d="M181.651 185.013L178.596 202.599H165.986C158.392 202.599 157.626 214.832 165.986 214.832H183.124C176.715 214.832 176.993 202.599 183.124 202.599H191.289L193.791 190.179C189.707 188.993 185.021 186.766 181.651 185.013Z" fill="#F962D8"/>
</svg>
